<svg width="43" height="33" viewBox="0 0 43 33" fill="none" xmlns="http://www.w3.org/2000/svg">
<path d="M0.25 23.6465C0.25 21.0541 0.768861 18.5318 1.80658 16.0796C2.84431 13.5573 4.14146 11.2803 5.69805 9.24841C7.31228 7.1465 9.09947 5.32484 11.0596 3.78343C13.0774 2.17197 15.0376 0.910825 16.94 0L19.4479 4.41401C17.3148 6.3758 15.7005 8.12739 14.6052 9.66879C13.5674 11.2102 13.0486 12.7516 13.0486 14.293C13.0486 16.7452 14.6628 19.4076 17.8913 22.2803C17.8913 23.9618 17.6319 25.4682 17.113 26.7994C16.5941 28.1306 15.8735 29.2516 14.9511 30.1624C14.0863 31.0732 13.0774 31.7739 11.9244 32.2643C10.829 32.7548 9.67598 33 8.46531 33C6.1016 33 4.14146 32.2293 2.58488 30.6879C1.02829 29.1465 0.25 26.7994 0.25 23.6465ZM23.1664 23.6465C23.1664 21.0541 23.6852 18.5318 24.723 16.0796C25.7607 13.5573 27.0578 11.2803 28.6144 9.24841C30.2287 7.1465 32.0159 5.32484 33.976 3.78343C35.9938 2.17197 37.9539 0.910825 39.8564 0L42.2778 4.41401C40.2023 6.3758 38.6169 8.12739 37.5215 9.66879C36.4838 11.2102 35.965 12.7516 35.965 14.293C35.965 16.7452 37.5792 19.4076 40.8077 22.2803C40.8077 23.9618 40.5482 25.4682 40.0294 26.7994C39.5105 28.1306 38.7899 29.2516 37.8675 30.1624C37.0027 31.0732 35.9938 31.7739 34.8408 32.2643C33.6877 32.7548 32.5059 33 31.2952 33C28.9892 33 27.0578 32.2293 25.5013 30.6879C23.9447 29.1465 23.1664 26.7994 23.1664 23.6465Z" fill="black" fill-opacity="0.48"/>
</svg>
