<svg width="24" height="26" viewBox="0 0 24 26" fill="none" xmlns="http://www.w3.org/2000/svg">
<path d="M10.0466 21.334C10.6226 21.91 11.3776 22.197 12.1336 22.197C12.8906 22.197 13.6466 21.91 14.2216 21.334L21.3696 14.187C22.5666 12.99 23.2306 11.328 23.1906 9.62701C23.1546 8.02301 22.5046 6.565 21.3606 5.52197C20.2846 4.54102 18.8816 4 17.4126 4C15.8426 4 14.3706 4.60699 13.2676 5.71002L12.2106 6.76801C12.1686 6.81 12.1006 6.81097 12.0586 6.76801L11.0016 5.711C9.90562 4.60699 8.43263 4 6.85663 4C5.28563 4 3.81462 4.60699 2.71063 5.71002C0.429624 8 0.429624 11.718 2.71162 13.999L10.0466 21.334ZM3.41862 6.41699C4.33263 5.50299 5.55263 5 6.85663 5C8.16463 5 9.38463 5.50201 10.2936 6.41699L11.3516 7.47498C11.7696 7.89398 12.4996 7.89301 12.9176 7.47498L13.9746 6.41699C14.8886 5.50299 16.1096 5 17.4126 5C18.6316 5 19.7946 5.448 20.6876 6.26196C21.6266 7.11902 22.1616 8.32202 22.1916 9.64996C22.2246 11.08 21.6676 12.475 20.6626 13.479L13.5146 20.627C12.7536 21.388 11.5146 21.389 10.7536 20.627L3.41862 13.292C1.52562 11.4 1.52662 8.315 3.41862 6.41699Z" fill="black"/>
</svg>
