<svg width="24" height="24" viewBox="0 0 24 24" fill="none" xmlns="http://www.w3.org/2000/svg">
<path d="M16.1378 15.5187C17.3663 14.1443 18.0448 12.3652 18.0435 10.5218C18.0435 6.37227 14.6668 3 10.5218 3C6.37227 3 3 6.37666 3 10.5218C3 14.6668 6.37666 18.0435 10.5218 18.0435C12.3652 18.0448 14.1443 17.3663 15.5187 16.1378L19.4837 20.1029C19.5245 20.1439 19.5731 20.1764 19.6267 20.1982C19.6802 20.2201 19.7377 20.231 19.7955 20.2302C19.912 20.2297 20.0238 20.1841 20.1073 20.1029C20.148 20.0623 20.1803 20.014 20.2023 19.9609C20.2243 19.9078 20.2357 19.8508 20.2357 19.7933C20.2357 19.7358 20.2243 19.6789 20.2023 19.6257C20.1803 19.5726 20.148 19.5244 20.1073 19.4837L16.1378 15.5187ZM3.87381 10.5218C3.87381 6.85967 6.85528 3.8782 10.5174 3.8782C14.1794 3.8782 17.1609 6.85967 17.1609 10.5218C17.1609 14.1838 14.1794 17.1653 10.5174 17.1653C6.85528 17.1653 3.87381 14.1838 3.87381 10.5218Z" fill="white" stroke="white" stroke-width="0.2"/>
</svg>
