<svg width="24" height="24" viewBox="0 0 24 24" fill="none" xmlns="http://www.w3.org/2000/svg">
<path d="M3.96876 23.2937H20.0352C20.4373 23.2937 20.8213 23.1211 21.0871 22.8205C21.3525 22.5202 21.4765 22.1199 21.4281 21.7232L19.7073 6.91481C19.6208 6.20748 19.0217 5.67406 18.314 5.67406H15.3339V4.03979C15.3339 3.1527 14.9875 2.31542 14.358 1.68145C14.2883 1.61216 14.214 1.54287 14.1298 1.4754C13.5325 0.979096 12.7745 0.706055 11.9956 0.706055C10.1576 0.706055 8.6619 2.2013 8.6619 4.03979V5.67406H5.68952C4.97585 5.67406 4.37722 6.20792 4.29616 6.91572L2.57088 21.7232C2.52469 22.1222 2.65103 22.523 2.91774 22.8227C3.18446 23.1221 3.56755 23.2937 3.96876 23.2937ZM14.968 7.48853C15.007 7.51979 15.054 7.54107 15.1075 7.54107C15.1532 7.54107 15.1935 7.52385 15.2288 7.50077C15.2501 7.50846 15.27 7.51434 15.2927 7.52568C15.3606 7.56326 15.4136 7.61172 15.4444 7.66561C15.4503 7.676 15.4639 7.70046 15.4716 7.70997C15.4752 7.71948 15.4946 7.76928 15.5001 7.77835C15.5123 7.82138 15.5187 7.86439 15.5187 7.90651C15.5187 7.94863 15.5123 7.99208 15.4851 8.07497C15.4802 8.084 15.4485 8.13746 15.4444 8.14741C15.4136 8.20174 15.3606 8.25019 15.2682 8.29956C15.1913 8.33985 15.1007 8.35118 15.0106 8.33941C14.9571 8.33126 14.9037 8.31089 14.8494 8.27692C14.7203 8.20174 14.6402 8.06001 14.6402 7.90651C14.6402 7.753 14.7203 7.61125 14.8344 7.54378C14.8426 7.54016 14.8774 7.52206 14.8851 7.51752C14.9055 7.50392 14.9381 7.49715 14.968 7.48853ZM9.11473 4.03979C9.11473 2.45126 10.4071 1.15888 11.9956 1.15888C12.6789 1.15888 13.3165 1.38892 13.8251 1.81005C13.8323 1.81685 13.8527 1.83631 13.8604 1.84219C13.9238 1.8902 13.9827 1.94636 14.0374 2.00161C14.5813 2.54952 14.8811 3.27315 14.8811 4.03979V5.67406H9.11473V4.03979ZM8.69405 7.54378C8.70219 7.54016 8.73706 7.52206 8.74431 7.51752C8.74929 7.51434 8.75835 7.5139 8.76378 7.51119C8.80001 7.53563 8.84122 7.55329 8.88831 7.55329C8.95216 7.55329 9.00876 7.52703 9.04997 7.48538C9.08212 7.49489 9.11563 7.5071 9.15231 7.52612C9.29405 7.60265 9.37827 7.74529 9.37827 7.90651C9.37827 8.07043 9.29586 8.20945 9.12831 8.29956C9.05132 8.33985 8.94944 8.34983 8.87382 8.34032C8.81812 8.33035 8.77555 8.31586 8.70899 8.27692C8.57994 8.20174 8.49978 8.06001 8.49978 7.90651C8.49978 7.753 8.57994 7.61125 8.69405 7.54378ZM3.02054 21.7758L4.74582 6.96779C4.80061 6.48824 5.20634 6.12689 5.68951 6.12689H8.6619V7.06243C8.60076 7.08327 8.54099 7.10861 8.48122 7.14484C8.21314 7.30062 8.04695 7.59223 8.04695 7.90651C8.04695 8.22076 8.21314 8.5124 8.49978 8.67677C8.5831 8.73019 8.68001 8.76598 8.81314 8.78862C8.85615 8.79451 8.8951 8.79857 8.93903 8.79857C9.07578 8.79857 9.21752 8.76372 9.36876 8.68536C9.65812 8.52824 9.8311 8.23707 9.8311 7.90651C9.8311 7.57639 9.65812 7.28522 9.33888 7.11314C9.26959 7.07691 9.19306 7.05292 9.11473 7.03617V6.12689H14.8811V7.04159C14.7891 7.06334 14.7058 7.09369 14.6216 7.14484C14.3535 7.30062 14.1873 7.59223 14.1873 7.90651C14.1873 8.22076 14.3535 8.5124 14.6148 8.66455C14.7162 8.72793 14.8254 8.76869 14.9535 8.78862C14.9965 8.79451 15.0355 8.79857 15.0794 8.79857C15.2162 8.79857 15.3579 8.76372 15.5091 8.68492C15.6513 8.60748 15.765 8.49971 15.8175 8.4019C15.8469 8.36476 15.8723 8.32084 15.8782 8.30003C15.9081 8.24749 15.9235 8.2013 15.9357 8.15918C15.9593 8.07585 15.9715 7.99072 15.9715 7.90651C15.9715 7.82274 15.9593 7.73761 15.9357 7.65384C15.9235 7.61216 15.9081 7.56597 15.8918 7.54198C15.8723 7.49306 15.8479 7.44959 15.8374 7.44099C15.765 7.31374 15.6513 7.20551 15.4793 7.11314C15.434 7.08915 15.3837 7.07376 15.3339 7.05836V6.12689H18.314C18.7935 6.12689 19.1992 6.48915 19.2577 6.96823L20.9784 21.7771C21.0115 22.0466 20.9273 22.3174 20.7479 22.5202C20.5677 22.724 20.3078 22.8408 20.0352 22.8408H3.96876C3.69661 22.8408 3.43669 22.7245 3.25646 22.5211C3.07533 22.3183 2.98929 22.0461 3.02054 21.7758Z" fill="black" stroke="black" stroke-width="0.5"/>
</svg>
