<?xml version="1.0" encoding="UTF-8"?>
<svg id="Layer_1" data-name="Layer 1" xmlns="http://www.w3.org/2000/svg" viewBox="0 0 1019.63 571.17">
  <defs>
    <style>
      .cls-1 {
        stroke-width: 1.14px;
      }

      .cls-1, .cls-2, .cls-3, .cls-4, .cls-5 {
        fill: #fff;
      }

      .cls-1, .cls-2, .cls-3, .cls-6, .cls-5, .cls-7 {
        stroke: #fff;
        stroke-miterlimit: 10;
      }

      .cls-2 {
        stroke-width: 1.6px;
      }

      .cls-6 {
        stroke-width: 2.97px;
      }

      .cls-6, .cls-7 {
        fill: none;
      }

      .cls-5 {
        stroke-width: .94px;
      }

      .cls-7 {
        stroke-linecap: round;
        stroke-width: 2.05px;
      }
    </style>
  </defs>
  <path class="cls-3" d="M690.33,508.94l23.35-23.35,23.35,23.35-23.35,23.35s-23.35-23.35-23.35-23.35Z"/>
  <path class="cls-2" d="M355.64,155.05l84.84-70.32-2.34-3.11C398.45,41.92,343.96,1,284.03,1,191.88-3.77,101.68,76.2,73.87,162.83c9.34-3.11,18.68-3.89,28.8-3.89C113.13,109.58,192.28,15.01,284.03,6.38c83.49,3.86,126.09,58.38,126.09,70.83s-3.89,21.79-12.45,30.36l-42.81,46.7h0l.78.78Z"/>
  <path class="cls-2" d="M660.76,243.51h-24.13v123.76c0,41.25-24.91,60.71-60.71,60.71s-66.94-15.57-66.94-62.27v-122.2h-24.13v-1.56h72.39v1.56h-23.35v122.2c0,38.92,12.45,60.71,44.37,60.71s56.82-21.79,56.82-59.16v-123.76h-23.35v-1.56h48.26v1.56h.78Z"/>
  <path class="cls-2" d="M814.87,369.61v56.04h-143.22v-1.56h24.13v-180.58h-24.13v-1.56h72.39v1.56h-23.35v180.58h47.48c30.36,0,44.37-24.91,45.92-54.49h1.56-.78Z"/>
  <path class="cls-2" d="M967.43,369.61v56.04h-136.99l105.08-181.36h-42.81c-31.13,0-48.26,20.24-51.37,46.7h-.78v-48.26h124.54l-105.08,181.36h59.93c30.36,0,44.37-24.91,45.92-54.49h1.56Z"/>
  <path class="cls-1" d="M494.19,495.7h169.68"/>
  <path class="cls-1" d="M791.52,495.7h169.68"/>
  <path class="cls-5" d="M250.56,242.22l107.41,3.89c19.46,0,59.93,5.45,59.93,33.47v67.72c0,17.12-7.01,33.47-18.68,45.14-34.25,34.25-80.17,54.49-129.99,54.49s-95.74-19.46-129.99-54.49h-1.56c-2.34,2.34-8.56,4.67-10.9,6.23v1.56c35.8,31.91,81.73,48.26,132.32,50.59h10.12c53.71,0,101.97-19.46,140.11-51.37.78-.78,1.56-1.56,2.34-1.56h1.56c2.34,0,4.67,2.34,4.67,4.67,0,38.92,0,116.75-80.17,154.89-12.45,6.23-27.24,9.34-41.25,9.34s-7.01,0-10.12,0c-15.57-1.56-30.36-7.01-44.37-14.01-16.35-8.56-31.91-18.68-47.48-28.02-19.46-11.68-38.14-23.35-58.38-33.47-14.01-7.01-26.46-9.34-38.14-9.34-52.15,0-88.73,51.37-89.51,52.93,34.25-22.57,61.49-30.36,85.62-30.36,66.16,0,107.41,62.27,188.36,66.16h15.57c19.46,0,38.92-4.67,56.82-14.01,35.8-17.9,60.71-50.59,74.72-87.18,3.89-9.34,6.23-17.12,7.78-24.91,1.56-8.56,2.34-17.12,2.34-25.69v-156.45c0-9.34,6.23-17.12,15.57-19.46h-204.71v-.78Z"/>
  <path class="cls-6" d="M167.27,196.3c2.34,0,4.67,1.56,4.67,4.67-.78,3.89-2.34,8.56-3.11,12.45-1.56,8.56-3.11,17.12-3.89,25.69-.78,17.9.78,35.03,5.45,52.93,3.89,17.12,11.68,33.47,11.68,50.59s-10.9,32.69-24.91,42.03c-27.24,18.68-72.39,27.24-99.63,3.89-35.03-30.36-24.13-87.18-2.34-122.2,10.12-17.12,24.13-31.91,40.47-42.81,10.9-7.78,24.13-13.23,37.36-17.12,7.01-2.34,13.23-3.89,20.24-5.45,4.67-.78,9.34-3.11,14.79-3.89l-.78-.78Z"/>
  <path class="cls-6" d="M54.41,389.33c-17.9-4.67-30.36-14.01-39.7-28.02-20.24-28.8-6.23-70.05-3.11-101.97,2.34-22.57.78-46.7-10.12-66.16,0-.78,0-2.34,1.56-2.34,31.13,3.11,58.38,15.57,81.73,36.58-26.46,26.46-43.59,56.82-49.04,91.85-3.11,22.57,2.34,52.93,18.68,69.27h0v.78Z"/>
  <path class="cls-6" d="M13.16,193.19s67.72-47.48,144.78,5.45"/>
  <path class="cls-7" d="M84.77,186.18c9.34-1.56,19.46,0,28.02,4.67,0,0,.78,0,0,.78h0c-8.56,6.23-19.46,9.34-30.36,10.12-11.68,0-20.24-4.67-31.13-8.56-12.45-4.67-26.46-3.89-39.7,0"/>
  <path class="cls-3" d="M987.93,265.31v-22.03h-6.75v-2.94h16.23v2.94h-6.78v22.03h-2.7Z"/>
  <path class="cls-4" d="M1000.07,265.31v-24.97h4.07l4.86,17.67.97,3.7c.24-.92.6-2.26,1.09-4l4.91-17.37h3.65v24.97h-2.6v-20.88l-5.98,20.88h-2.43l-5.94-21.24v21.24h-2.6Z"/>
</svg>